<?xml version="1.0" encoding="utf-8"?>
<!-- Generator: Adobe Illustrator 16.0.0, SVG Export Plug-In . SVG Version: 6.00 Build 0)  -->
<!DOCTYPE svg PUBLIC "-//W3C//DTD SVG 1.1//EN" "http://www.w3.org/Graphics/SVG/1.1/DTD/svg11.dtd">
<svg version="1.1" id="图层_1" xmlns="http://www.w3.org/2000/svg" xmlns:xlink="http://www.w3.org/1999/xlink" x="0px" y="0px"
	 width="60px" height="60px" viewBox="0 0 60 60" enable-background="new 0 0 60 60" xml:space="preserve">
<path fill="#454444" d="M28.512,18.241l-0.174,5.47l5.021-4.02L28.512,18.241z M35.121,26.89l1.441-4.173l-3.561-1.468L35.121,26.89
	z M37.039,27.783l6.344,3.273l-5.238-7.066L37.039,27.783z M38.813,43.023l3.898-2.334l-7.309-4.334L38.813,43.023z M53.5,41.564
	L37.209,29.929l5.061,8.827L53.5,41.564z M29.965,40.484l8.67,12.016L36.1,41.477L29.965,40.484z M48.922,31.453l-6.445-4.183
	l4.188,6.841L48.922,31.453z M37.715,19.152l-1.961,1.379h2.406L37.715,19.152z M42.025,21.832l-1.814,0.953l1.412,2.354
	L42.025,21.832z M26.455,42.154l2.953,1.736l-0.563-1.654L26.455,42.154z M35.229,39.587L31.82,32.92l7.307,4.334l-5.063-8.828
	l-2.119-5.641l-5.021,4.021l0.172-5.471l-3.547,1.048L6.5,7.5l14.009,17.64l-3.335,4.445l-4.133,5.511l-3.117,4.573l2.01,4.075
	l3.005,0.722l2.7-0.969l2.122-2.103l5.47-0.773l3.863-2.025L35.229,39.587z M22.358,28.119l2.679,2.693l-5.902,2.78L22.358,28.119z"
	/>
</svg>
