<?xml version="1.0" encoding="utf-8"?>
<!-- Generator: Adobe Illustrator 16.0.0, SVG Export Plug-In . SVG Version: 6.00 Build 0)  -->
<!DOCTYPE svg PUBLIC "-//W3C//DTD SVG 1.1//EN" "http://www.w3.org/Graphics/SVG/1.1/DTD/svg11.dtd">
<svg version="1.1" id="图层_1" xmlns="http://www.w3.org/2000/svg" xmlns:xlink="http://www.w3.org/1999/xlink" x="0px" y="0px"
	 width="47px" height="45px" viewBox="0 0 47 45" enable-background="new 0 0 47 45" xml:space="preserve">
	<polygon fill="#454444" points="22.011,10.741 21.838,16.211 26.86,12.191 	"/>
	<polygon fill="#454444" points="28.621,19.39 30.062,15.217 26.502,13.749 	"/>
	<polygon fill="#454444" points="30.538,20.283 36.883,23.557 31.644,16.49 	"/>
	<polygon fill="#454444" points="32.313,35.523 36.211,33.189 28.903,28.855 	"/>
	<polygon fill="#454444" points="47,34.064 30.708,22.428 35.77,31.256 	"/>
	<polygon fill="#454444" points="23.464,32.984 32.134,45 29.599,33.976 	"/>
	<polygon fill="#454444" points="42.421,23.953 35.976,19.771 40.163,26.611 	"/>
	<polygon fill="#454444" points="31.214,11.652 29.254,13.031 31.659,13.031 	"/>
	<polygon fill="#454444" points="35.526,14.332 33.71,15.285 35.123,17.64 	"/>
	<polygon fill="#454444" points="19.954,34.654 22.907,36.391 22.345,34.736 	"/>
	<path fill="#454444" d="M28.729,32.087l-3.409-6.667l7.307,4.334l-5.063-8.828l-2.119-5.641l-5.021,4.02l0.171-5.47l-3.546,1.048
		L0,0l14.009,17.64l-3.335,4.445l-4.133,5.51l-3.117,4.574l2.009,4.075l3.005,0.722l2.7-0.969l2.123-2.103l5.469-0.773l3.864-2.026
		L28.729,32.087z M15.858,20.619l2.679,2.693l-5.902,2.781L15.858,20.619z"/>
</svg>
