<?xml version="1.0" encoding="utf-8"?>
<!-- Generator: Adobe Illustrator 16.0.0, SVG Export Plug-In . SVG Version: 6.00 Build 0)  -->
<!DOCTYPE svg PUBLIC "-//W3C//DTD SVG 1.1//EN" "http://www.w3.org/Graphics/SVG/1.1/DTD/svg11.dtd">
<svg version="1.1" id="图层_1" xmlns="http://www.w3.org/2000/svg" xmlns:xlink="http://www.w3.org/1999/xlink" x="0px" y="0px"
	 width="20px" height="16px" viewBox="0 0 20 16" enable-background="new 0 0 20 16" xml:space="preserve">
<path fill="#FFFFFF" d="M14.812,7.787c-0.777-0.15-0.399-0.569-0.399-0.569s0.761-1.257-0.151-2.17
	c-1.129-1.132-3.876,0.144-3.876,0.144C9.336,5.518,9.614,5.043,9.763,4.235c0-0.952-0.326-2.562-3.119-1.61
	C3.852,3.581,1.455,6.932,1.455,6.932c-1.667,2.227-1.445,3.949-1.445,3.949c0.416,3.797,4.447,4.842,7.584,5.088
	c3.299,0.26,7.752-1.139,9.102-4.01C18.046,9.082,15.593,7.943,14.812,7.787z M7.837,14.898c-3.275,0.152-5.922-1.492-5.922-3.68
	c0-2.191,2.646-3.948,5.922-4.1c3.277-0.152,5.931,1.201,5.931,3.387C13.768,12.693,11.114,14.748,7.837,14.898z M7.184,8.563
	c-3.293,0.384-2.913,3.475-2.913,3.475s-0.033,0.979,0.884,1.477c1.927,1.047,3.911,0.414,4.915-0.883
	C11.071,11.334,10.483,8.179,7.184,8.563z M6.353,12.898c-0.614,0.072-1.109-0.283-1.109-0.799c0-0.512,0.44-1.049,1.055-1.113
	c0.706-0.066,1.167,0.34,1.167,0.855C7.465,12.354,6.967,12.828,6.353,12.898z M8.296,11.242c-0.209,0.156-0.465,0.135-0.575-0.053
	c-0.114-0.184-0.071-0.475,0.138-0.629c0.245-0.182,0.5-0.129,0.609,0.053C8.578,10.801,8.499,11.082,8.296,11.242z M15.872,5.91
	c0,0,0.534-2.42-1.884-1.886c-0.299,0-0.539-0.242-0.539-0.539c0-0.302,0.24-0.544,0.539-0.544c0,0,3.367-0.623,2.964,2.998
	c0,0.021-0.003,0.039-0.007,0.058c-0.038,0.257-0.265,0.454-0.529,0.454C16.116,6.451,15.872,6.21,15.872,5.91z M19.68,6.921h-0.005
	c-0.09,0.612-0.393,0.662-0.755,0.662c-0.434,0-0.782-0.272-0.782-0.706c0-0.376,0.155-0.758,0.155-0.758
	c0.045-0.158,0.411-1.142-0.241-2.61c-1.198-2.014-3.608-2.043-3.894-1.929c-0.287,0.113-0.711,0.17-0.711,0.17
	c-0.437,0-0.786-0.354-0.786-0.786c0-0.362,0.242-0.669,0.574-0.763c0,0,0.007-0.012,0.018-0.015
	c0.024-0.005,0.049-0.028,0.075-0.031c0.334-0.063,1.532-0.3,2.695-0.026C18.106,0.615,20.965,2.631,19.68,6.921z"/>
</svg>
