<?xml version="1.0" encoding="utf-8"?>
<!-- Generator: Adobe Illustrator 16.0.0, SVG Export Plug-In . SVG Version: 6.00 Build 0)  -->
<!DOCTYPE svg PUBLIC "-//W3C//DTD SVG 1.1//EN" "http://www.w3.org/Graphics/SVG/1.1/DTD/svg11.dtd">
<svg version="1.1" id="图层_1" xmlns="http://www.w3.org/2000/svg" xmlns:xlink="http://www.w3.org/1999/xlink" x="0px" y="0px"
	 width="30px" height="16px" viewBox="0 0 30 16" enable-background="new 0 0 30 16" xml:space="preserve">
<path fill-rule="evenodd" clip-rule="evenodd" fill="#FFFFFF" d="M9.202,0.031c2.336,0.326,4.243,1.65,5.484,3.531
	C15.981,1.6,17.945,0.248,20.478,0v3.348c-0.634,3.783-1.889,6.623-5.358,8.527c-0.04-0.017,0.029-0.032-0.011-0.049
	c0.654-1.13,1.017-2.455,1.017-3.852c0-1.605-0.466-3.117-1.318-4.344c-0.851,1.227-1.311,2.738-1.311,4.344
	c0,1.244,0.312,2.43,0.837,3.474c-3.042-1.564-4.617-4.286-5.25-8.101V2.971C9.083,2.791,9.173,0.563,9.202,0.031z M23.643,2.78
	v0.473c0,4.026,1.926,6.753,5.341,8.333C29.532,10.5,30,9.275,30,7.975c0-3.916-3.192-7.166-6.357-7.877
	C23.643,0.755,23.643,1.676,23.643,2.78z M6.55,3.442V0.084C2.753,0.761,0,4.029,0,7.975c0,1.488,0.391,2.878,1.097,4.073
	C4.726,10.144,6.55,7.275,6.55,3.442z M8.147,7.785c-1.055,2.545-2.968,4.593-5.51,6.083C4.07,15.188,5.978,16,8.082,16
	c2.048,0,3.906-0.77,5.322-2.024C10.976,12.559,9.313,10.475,8.147,7.785z M21.899,7.596c-1.19,2.651-3.052,4.768-5.743,6.356
	c1.42,1.27,3.291,2.048,5.351,2.048c2.138,0,4.074-0.837,5.513-2.193C24.708,12.313,22.961,10.248,21.899,7.596z"/>
</svg>
