<?xml version="1.0" encoding="utf-8"?>
<!-- Generator: Adobe Illustrator 16.0.0, SVG Export Plug-In . SVG Version: 6.00 Build 0)  -->
<!DOCTYPE svg PUBLIC "-//W3C//DTD SVG 1.1//EN" "http://www.w3.org/Graphics/SVG/1.1/DTD/svg11.dtd">
<svg version="1.1" id="图层_1" xmlns="http://www.w3.org/2000/svg" xmlns:xlink="http://www.w3.org/1999/xlink" x="0px" y="0px"
	 width="1000px" height="1000px" viewBox="0 0 500 500" enable-background="new 0 0 500 500" xml:space="preserve">
	<polygon fill="#5DB6E7" points="145.016,278.809 161.804,329.845 186.614,259.024 	"/>
	<polygon fill="#A9CE52" points="149.035,195.987 168.708,240.194 113.553,245.377 	"/>
	<polygon fill="#752388" points="189.762,198.313 0,0 149.035,195.987 	"/>
	<polygon fill="#7FC7EF" points="189.762,198.313 181.35,165.364 0,0 	"/>
	<polygon fill="#8C509B" points="168.708,240.194 149.035,195.987 189.762,198.313 	"/>
	<polygon fill="#00853C" points="145.016,278.809 168.708,240.194 113.553,245.377 	"/>
	<polygon fill="#1DAB41" points="113.553,245.377 69.583,306.599 145.016,278.809 	"/>
	<polygon fill="#90529C" points="65.596,368.004 89.758,410.726 57.809,402.719 	"/>
	<polygon fill="#C38FBD" points="57.809,402.719 36.429,357.421 65.596,368.004 	"/>
	<polygon fill="#EF821E" points="69.583,306.599 65.596,368.004 36.429,357.421 	"/>
	<polygon fill="#E95320" points="65.596,368.004 100.685,330.506 69.583,306.599 	"/>
	<polygon fill="#008CCE" points="65.596,368.004 117.715,358.973 89.758,410.726 	"/>
	<polygon fill="#5DB6E7" points="100.685,330.506 117.715,358.973 65.596,368.004 	"/>
	<polygon fill="#008CCE" points="100.685,330.506 145.016,278.809 117.715,358.973 	"/>
	<polygon fill="#F5AB2D" points="100.685,330.506 69.583,306.599 145.016,278.809 	"/>
	<polygon fill="#1DADE5" points="189.762,198.313 219.088,153.713 181.35,165.364 	"/>
	<polygon fill="#C38FBD" points="189.762,198.313 186.614,259.024 168.708,240.194 	"/>
	<polygon fill="#7FC7EF" points="189.762,198.313 217.262,214.491 186.614,259.024 	"/>
	<polygon fill="#90529C" points="186.614,259.024 196.614,320.909 161.804,329.845 	"/>
	<polygon fill="#1DAB41" points="196.614,320.909 240.365,345.491 199.256,368.004 	"/>
	<polygon fill="#F5AB2D" points="161.804,329.845 199.256,368.004 196.614,320.909 	"/>
	<polygon fill="#EF821E" points="161.804,329.845 141.073,376.601 199.256,368.004 	"/>
	<polygon fill="#7FC7EF" points="117.715,358.973 161.804,329.845 145.016,278.809 	"/>
	<polygon fill="#EF821E" points="117.715,358.973 118.491,399.957 89.758,410.726 	"/>
	<polygon fill="#F5AB2D" points="117.715,358.973 141.073,376.601 118.491,399.957 	"/>
	<polygon fill="#E95320" points="117.715,358.973 161.804,329.845 141.073,376.601 	"/>
	<polygon fill="#008CCE" points="219.088,153.713 217.262,214.491 189.762,198.313 	"/>
	<polygon fill="#E95320" points="285.759,135.45 232.332,180.119 234.154,119.342 	"/>
	<polygon fill="#C38FBD" points="186.614,259.024 269.354,282.445 196.614,320.909 	"/>
	<polygon fill="#00853C" points="269.354,282.445 240.365,345.491 196.614,320.909 	"/>
	<polygon fill="#1DADE5" points="217.262,214.491 269.354,282.445 186.614,259.024 	"/>
	<polygon fill="#F5AB2D" points="270.693,169.837 293.23,232.499 217.262,214.491 	"/>
	<polygon fill="#008CCE" points="293.23,232.499 269.354,282.445 217.262,214.491 	"/>
	<polygon fill="#A9CE52" points="240.365,345.491 305.628,356.515 269.354,282.445 	"/>
	<polygon fill="#EF821E" points="304.492,215.437 319.809,169.073 281.955,152.759 	"/>
	<polygon fill="#E95520" points="324.898,225.369 392.363,261.729 336.645,183.214 	"/>
	<polygon fill="#7FC7EF" points="269.354,282.445 347.082,330.593 293.23,232.499 	"/>
	<polygon fill="#00853C" points="307.488,320.614 343.759,394.697 385.213,368.762 	"/>
	<polygon fill="#008CCE" points="326.668,249.195 500,378.494 380.529,347.273 	"/>
	<polygon fill="#1DAB41" points="249.624,366.477 341.857,500 314.889,377.5 	"/>
	<polygon fill="#90529C" points="382.726,219.664 427.273,295.672 451.296,266.141 	"/>
	<polygon fill="#F5AB2D" points="332.072,129.457 311.234,144.777 336.811,144.777 	"/>
	<polygon fill="#1DAB41" points="377.956,159.237 358.629,169.837 373.662,195.987 	"/>
	<polygon fill="#008CCE" points="237.722,385.951 212.271,385.044 243.694,404.326 	"/>
</svg>
