<?xml version="1.0" encoding="utf-8"?>
<!-- Generator: Adobe Illustrator 16.0.0, SVG Export Plug-In . SVG Version: 6.00 Build 0)  -->
<!DOCTYPE svg PUBLIC "-//W3C//DTD SVG 1.1//EN" "http://www.w3.org/Graphics/SVG/1.1/DTD/svg11.dtd">
<svg version="1.1" id="图层_1" xmlns="http://www.w3.org/2000/svg" xmlns:xlink="http://www.w3.org/1999/xlink" x="0px" y="0px"
	 width="80px" height="40px" viewBox="0 0 80 40" enable-background="new 0 0 80 40" xml:space="preserve">
<path fill="#743086" d="M72.511,17.512c1.797-0.271,3.526-1.089,4.909-2.472c3.44-3.441,3.44-9.019,0-12.459s-9.019-3.441-12.459,0
	c-1.384,1.382-2.201,3.112-2.473,4.908L72.511,17.512z"/>
<path fill="#BC88B6" d="M44.3,31.38l-3.695,4.775c-0.842,0.843-0.798,2.251,0.096,3.146c0.895,0.895,2.303,0.938,3.146,0.094
	L48.62,35.7L44.3,31.38z"/>
<polygon fill="#895295" points="50.816,35.017 44.984,29.186 61.545,9.745 70.257,18.457 "/>
<g>
	<polygon fill-rule="evenodd" clip-rule="evenodd" fill="#7FC0E8" points="8.733,33 31.266,33 30.266,40 9.733,40 	"/>
	<g>
		<polygon fill-rule="evenodd" clip-rule="evenodd" fill="#1DA6DE" points="20.014,5 14.255,22.172 5.47,16.699 8.468,31.077 
			10.272,31.077 8.069,20.568 15.431,25.143 19.999,11.545 19.999,31.077 31.531,31.077 34.558,16.713 25.744,22.172 		"/>
	</g>
	<circle fill-rule="evenodd" clip-rule="evenodd" fill="#0085C7" cx="20" cy="5" r="5"/>
	<circle fill-rule="evenodd" clip-rule="evenodd" fill="#0085C7" cx="35" cy="15.813" r="5"/>
	<circle fill-rule="evenodd" clip-rule="evenodd" fill="#0085C7" cx="5" cy="15.813" r="5"/>
</g>
</svg>
