<?xml version="1.0" encoding="utf-8"?>
<!-- Generator: Adobe Illustrator 16.0.0, SVG Export Plug-In . SVG Version: 6.00 Build 0)  -->
<!DOCTYPE svg PUBLIC "-//W3C//DTD SVG 1.1//EN" "http://www.w3.org/Graphics/SVG/1.1/DTD/svg11.dtd">
<svg version="1.1" id="图层_1" xmlns="http://www.w3.org/2000/svg" xmlns:xlink="http://www.w3.org/1999/xlink" x="0px" y="0px"
	 width="80px" height="40px" viewBox="0 0 80 40" enable-background="new 0 0 80 40" xml:space="preserve">
<rect x="3.75" y="13" fill="#1DA441" width="27" height="17"/>
<polygon fill="#A2C752" points="30.75,17.161 40.75,14 40.75,28 30.75,25.29 "/>
<polygon fill="#00803C" points="21.037,32.524 23.75,32.524 23.75,29.958 10.75,29.958 10.75,32.524 13.372,32.524 9.122,37.984 
	11.442,39.973 17.24,32.524 17.242,32.524 22.758,40 25.122,38.059 "/>
<path fill="#00803C" d="M8.25,0c-4.143,0-7.5,3.357-7.5,7.5S4.107,15,8.25,15c4.142,0,7.5-3.357,7.5-7.5S12.392,0,8.25,0z M8.25,10
	c-1.381,0-2.5-1.119-2.5-2.5S6.869,5,8.25,5s2.5,1.119,2.5,2.5S9.631,10,8.25,10z"/>
<path fill="#00803C" d="M26.366,0c-4.144,0-7.501,3.357-7.501,7.5s3.357,7.5,7.501,7.5c4.142,0,7.499-3.357,7.499-7.5
	S30.508,0,26.366,0z M26.365,10c-1.381,0-2.5-1.119-2.5-2.5s1.119-2.5,2.5-2.5s2.5,1.119,2.5,2.5S27.746,10,26.365,10z"/>
<g>
	<path fill="#E8801E" d="M40,0v25.5h3.792l-1.625,8.25l8.449-8.25h16.393V0H40z M63.009,21.5H44V4h19.009V21.5z"/>
	<polygon fill="#E25520" points="80,7.25 52.991,7.25 52.991,32.75 70.962,32.75 79.084,40 77.497,32.75 80,32.75 	"/>
</g>
</svg>
