<?xml version="1.0" encoding="utf-8"?>
<!-- Generator: Adobe Illustrator 16.0.0, SVG Export Plug-In . SVG Version: 6.00 Build 0)  -->
<!DOCTYPE svg PUBLIC "-//W3C//DTD SVG 1.1//EN" "http://www.w3.org/Graphics/SVG/1.1/DTD/svg11.dtd">
<svg version="1.1" id="图层_1" xmlns="http://www.w3.org/2000/svg" xmlns:xlink="http://www.w3.org/1999/xlink" x="0px" y="0px"
	 width="40px" height="40px" viewBox="0 0 40 40" enable-background="new 0 0 40 40" xml:space="preserve">
<rect x="3" y="13" fill="#1DA441" width="27" height="17"/>
<polygon fill="#A2C752" points="30,17.161 40,14 40,28 30,25.29 "/>
<polygon fill="#00803C" points="20.287,32.524 23,32.524 23,29.958 10,29.958 10,32.524 12.622,32.524 8.372,37.984 10.692,39.973 
	16.49,32.524 16.492,32.524 22.008,40 24.372,38.059 "/>
<path fill="#00803C" d="M7.5,0C3.357,0,0,3.357,0,7.5S3.357,15,7.5,15c4.142,0,7.5-3.357,7.5-7.5S11.642,0,7.5,0z M7.5,10
	C6.119,10,5,8.881,5,7.5S6.119,5,7.5,5S10,6.119,10,7.5S8.881,10,7.5,10z"/>
<path fill="#00803C" d="M25.616,0c-4.144,0-7.501,3.357-7.501,7.5s3.357,7.5,7.501,7.5c4.142,0,7.499-3.357,7.499-7.5
	S29.758,0,25.616,0z M25.615,10c-1.381,0-2.5-1.119-2.5-2.5s1.119-2.5,2.5-2.5s2.5,1.119,2.5,2.5S26.996,10,25.615,10z"/>
</svg>
