<?xml version="1.0" encoding="utf-8"?>
<!-- Generator: Adobe Illustrator 16.0.0, SVG Export Plug-In . SVG Version: 6.00 Build 0)  -->
<!DOCTYPE svg PUBLIC "-//W3C//DTD SVG 1.1//EN" "http://www.w3.org/Graphics/SVG/1.1/DTD/svg11.dtd">
<svg version="1.1" id="图层_1" xmlns="http://www.w3.org/2000/svg" xmlns:xlink="http://www.w3.org/1999/xlink" x="0px" y="0px"
	 width="60px" height="50px" viewBox="0 0 60 50" enable-background="new 0 0 60 50" xml:space="preserve">
<polygon fill="#444444" points="19.664,20.125 22.718,19.633 24.327,13.172 21.271,13.664 		"/>
<polygon fill="#444444" points="34.643,11.51 31.588,12.002 29.979,18.463 33.033,17.971 		"/>
<polygon fill="#444444" points="29.484,12.341 26.43,12.833 24.822,19.293 27.875,18.801 		"/>
<polygon fill="#444444" points="41.902,10.34 40.295,16.801 44.988,16.045 44.014,10 		"/>
<polygon fill="#444444" points="19.169,14.003 15,14.674 15.974,20.719 17.56,20.463 		"/>
<polygon fill="#444444" points="39.799,10.679 36.746,11.171 35.137,17.631 38.191,17.139 		"/>
<path fill="#444444" d="M16,21v19h29V21H16z M42.168,38H19.167v-2h23.001V38z M42.168,34H19.167v-2h23.001V34z M42.168,30H19.167
	v-2h23.001V30z M42.168,26H19.167v-2h23.001V26z"/>
</svg>
