<?xml version="1.0" encoding="utf-8"?>
<!-- Generator: Adobe Illustrator 16.0.0, SVG Export Plug-In . SVG Version: 6.00 Build 0)  -->
<!DOCTYPE svg PUBLIC "-//W3C//DTD SVG 1.1//EN" "http://www.w3.org/Graphics/SVG/1.1/DTD/svg11.dtd">
<svg version="1.1" id="图层_1" xmlns="http://www.w3.org/2000/svg" xmlns:xlink="http://www.w3.org/1999/xlink" x="0px" y="0px"
	 width="60px" height="50px" viewBox="0 0 60 50" enable-background="new 0 0 60 50" xml:space="preserve">
<path fill="#444444" d="M22.764,20.441L22.742,20.4l-0.02-0.043c-0.516-1.088-0.777-2.33-0.777-3.69
	c0-0.403,0.037-0.798,0.092-1.187L15,14v26l8.915-1.725V22.604L22.764,20.441z"/>
<polygon fill="#444444" points="32.021,31.338 30.213,34.424 28.531,31.268 25.813,26.164 25.813,37.982 35.412,40 35.412,25.551 
	"/>
<path fill="#444444" d="M38.916,14.195c0.234,0.784,0.363,1.612,0.363,2.471c0,1.277-0.279,2.518-0.83,3.688l-0.039,0.082
	l-0.045,0.078l-1.191,2.034V40L45,38.275v-23.4L38.916,14.195z"/>
<path fill="#444444" d="M37.235,15.967c0.004,0.036,0.012,0.071,0.015,0.107C37.246,16.038,37.239,16.003,37.235,15.967
	c-0.005-0.051-0.015-0.1-0.021-0.149c0-0.002-0.001-0.005-0.001-0.008c-0.001-0.006-0.002-0.011-0.003-0.017
	c0-0.001,0-0.002-0.001-0.004c-0.01-0.081-0.022-0.161-0.036-0.241v-0.031c-0.009-0.048-0.018-0.096-0.026-0.143
	c-0.028-0.146-0.064-0.288-0.101-0.43c-0.013-0.046-0.022-0.093-0.036-0.138c-0.793-2.799-3.361-4.852-6.414-4.852
	c-3.685,0-6.671,2.986-6.671,6.671c0,0.349,0.035,0.689,0.086,1.023c0.082,0.653,0.243,1.275,0.517,1.854l5.767,10.825L36.46,19.81
	c0.001-0.002,0.003-0.004,0.004-0.006l0.177-0.302c0.202-0.431,0.343-0.893,0.45-1.368c0.015-0.066,0.034-0.131,0.047-0.198
	c0.01-0.051,0.027-0.099,0.036-0.149v-0.085c0.058-0.352,0.095-0.709,0.095-1.077C37.269,16.402,37.257,16.184,37.235,15.967z
	 M30.613,19.432c-1.565,0-2.834-1.27-2.834-2.834c0-1.563,1.27-2.833,2.834-2.833c1.563,0,2.834,1.269,2.834,2.833
	S32.178,19.432,30.613,19.432z"/>
</svg>
