<?xml version="1.0" encoding="utf-8"?>
<!-- Generator: Adobe Illustrator 16.0.0, SVG Export Plug-In . SVG Version: 6.00 Build 0)  -->
<!DOCTYPE svg PUBLIC "-//W3C//DTD SVG 1.1//EN" "http://www.w3.org/Graphics/SVG/1.1/DTD/svg11.dtd">
<svg version="1.1" id="图层_1" xmlns="http://www.w3.org/2000/svg" xmlns:xlink="http://www.w3.org/1999/xlink" x="0px" y="0px"
	 width="60px" height="60px" viewBox="0 0 60 60" enable-background="new 0 0 60 60" xml:space="preserve">
<rect fill="#EEEEEE" width="60" height="60"/>
<path fill="#444444" d="M45,19.5c0,1.381-1.119,2.5-2.5,2.5h-25c-1.381,0-2.5-1.119-2.5-2.5l0,0c0-1.381,1.119-2.5,2.5-2.5h25
	C43.881,17,45,18.119,45,19.5L45,19.5z"/>
<path fill="#444444" d="M45,39.5c0,1.381-1.119,2.5-2.5,2.5h-25c-1.381,0-2.5-1.119-2.5-2.5l0,0c0-1.381,1.119-2.5,2.5-2.5h25
	C43.881,37,45,38.119,45,39.5L45,39.5z"/>
<path fill="#444444" d="M45,29.5c0,1.381-1.119,2.5-2.5,2.5h-25c-1.381,0-2.5-1.119-2.5-2.5l0,0c0-1.381,1.119-2.5,2.5-2.5h25
	C43.881,27,45,28.119,45,29.5L45,29.5z"/>
</svg>
