<?xml version="1.0" encoding="utf-8"?>
<!-- Generator: Adobe Illustrator 16.0.0, SVG Export Plug-In . SVG Version: 6.00 Build 0)  -->
<!DOCTYPE svg PUBLIC "-//W3C//DTD SVG 1.1//EN" "http://www.w3.org/Graphics/SVG/1.1/DTD/svg11.dtd">
<svg version="1.1" id="图层_1" xmlns="http://www.w3.org/2000/svg" xmlns:xlink="http://www.w3.org/1999/xlink" x="0px" y="0px"
	 width="60px" height="50px" viewBox="0 0 60 50" enable-background="new 0 0 60 50" xml:space="preserve">
<rect x="35" y="10" fill="#444444" width="4" height="6"/>
<rect x="21" y="10" fill="#444444" width="4" height="6"/>
<polygon fill="#444444" points="40,13.333 40,17 34,17 34,13.333 26,13.333 26,17 20,17 20,13.333 15,13.333 15,19 45,19 45,13.333 
	"/>
<path fill="#444444" d="M15,20v20h30V20H15z M29.012,35.537h-9.254V33.07c1.729-1.53,3.439-3.043,5.167-4.573
	c0.648-0.558,1.009-1.171,1.009-1.71c0-0.758-0.613-1.441-1.604-1.441c-1.135,0-1.657,0.937-1.891,1.583l-2.79-0.738
	c0.594-1.999,2.269-3.509,4.771-3.509c2.737,0,4.574,1.782,4.574,4.105c0,2.357-1.621,3.457-3.169,4.537
	c-1.026,0.738-2.125,1.439-2.125,1.458l0.018,0.019c0.018,0,1.243-0.09,3.151-0.09h2.145v2.826H29.012z M40.498,33.27h-1.352v2.271
	H36.3V33.27H30V31l6.662-8.066h2.484v7.707h1.352V33.27z M35.113,28.623l-1.008,1.188c-0.451,0.541-0.687,0.813-0.687,0.828v0.021
	c0.09,0,0.687-0.021,1.515-0.021H36.3v-0.611c0-1.297,0.056-2.971,0.056-2.986h-0.021C36.32,27.039,35.617,28.029,35.113,28.623z"/>
</svg>
