<?xml version="1.0" encoding="utf-8"?>
<!-- Generator: Adobe Illustrator 16.0.0, SVG Export Plug-In . SVG Version: 6.00 Build 0)  -->
<!DOCTYPE svg PUBLIC "-//W3C//DTD SVG 1.1//EN" "http://www.w3.org/Graphics/SVG/1.1/DTD/svg11.dtd">
<svg version="1.1" id="图层_1" xmlns="http://www.w3.org/2000/svg" xmlns:xlink="http://www.w3.org/1999/xlink" x="0px" y="0px"
	 width="40px" height="40px" viewBox="0 0 40 40" enable-background="new 0 0 40 40" xml:space="preserve">
<path fill="#FFFFFF" d="M39.252,35.469l-10.54-10.543c4.368-6.17,3.795-14.769-1.731-20.296c-6.172-6.172-16.179-6.172-22.352,0
	c-6.172,6.172-6.172,16.18,0,22.353c5.528,5.527,14.127,6.1,20.296,1.729l10.543,10.543c0.995,0.996,2.608,0.996,3.605,0l0.179-0.18
	C40.249,38.078,40.249,36.465,39.252,35.469z M23.256,23.256c-4.115,4.115-10.786,4.115-14.9,0c-4.117-4.114-4.117-10.786,0-14.901
	c4.114-4.115,10.786-4.115,14.9,0C27.37,12.47,27.37,19.142,23.256,23.256z M21.575,12.86c1.408,0,2.549,1.141,2.549,2.549v0.34
	c0,1.408-1.141,2.549-2.549,2.549h-3.138v3.137c0,1.408-1.141,2.549-2.549,2.549h-0.34c-1.407,0-2.549-1.141-2.549-2.549v-3.137
	H9.862c-1.407,0-2.549-1.142-2.549-2.549v-0.34c0-1.408,1.142-2.549,2.549-2.549H13V9.723c0-1.407,1.142-2.549,2.549-2.549h0.34
	c1.408,0,2.549,1.142,2.549,2.549v3.137H21.575z"/>
</svg>
