<?xml version="1.0" encoding="utf-8"?>
<!-- Generator: Adobe Illustrator 16.0.0, SVG Export Plug-In . SVG Version: 6.00 Build 0)  -->
<!DOCTYPE svg PUBLIC "-//W3C//DTD SVG 1.1//EN" "http://www.w3.org/Graphics/SVG/1.1/DTD/svg11.dtd">
<svg version="1.1" id="图层_1" xmlns="http://www.w3.org/2000/svg" xmlns:xlink="http://www.w3.org/1999/xlink" x="0px" y="0px"
	 width="40px" height="40px" viewBox="0 0 40 40" enable-background="new 0 0 40 40" xml:space="preserve">
<path fill="#FFFFFF" d="M26.98,4.629c-6.172-6.172-16.179-6.172-22.352,0c-6.172,6.172-6.172,16.18,0,22.351
	c5.528,5.527,14.127,6.102,20.296,1.73l10.543,10.543c0.995,0.994,2.608,0.994,3.605,0l0.179-0.182c0.997-0.996,0.997-2.609,0-3.605
	l-10.54-10.542C33.08,18.755,32.507,10.156,26.98,4.629z M23.256,23.256c-4.115,4.113-10.786,4.113-14.9,0
	c-4.117-4.114-4.117-10.786,0-14.901c4.114-4.115,10.786-4.115,14.9,0C27.37,12.47,27.37,19.141,23.256,23.256z M24.124,15.749
	c0,1.408-1.141,2.549-2.549,2.549H9.862c-1.407,0-2.549-1.142-2.549-2.549v-0.34c0-1.408,1.142-2.549,2.549-2.549h11.713
	c1.408,0,2.549,1.141,2.549,2.549V15.749z"/>
</svg>
