<?xml version="1.0" encoding="utf-8"?>
<!-- Generator: Adobe Illustrator 16.0.0, SVG Export Plug-In . SVG Version: 6.00 Build 0)  -->
<!DOCTYPE svg PUBLIC "-//W3C//DTD SVG 1.1//EN" "http://www.w3.org/Graphics/SVG/1.1/DTD/svg11.dtd">
<svg version="1.1" id="图层_1" xmlns="http://www.w3.org/2000/svg" xmlns:xlink="http://www.w3.org/1999/xlink" x="0px" y="0px"
	 width="370px" height="20px" viewBox="0 0 370 20" enable-background="new 0 0 370 20" xml:space="preserve">
<path fill="#FFFFFF" d="M16.276,4.698l-8.192,8.817c-0.854,0.907-1.787,1.813-1.787,1.84l0.027,0.028
	c0.027,0,1.347-0.083,2.996-0.083h6.956v4.313H0v-4.313l8.578-9.01c0.688-0.742,1.787-1.621,1.787-1.648l-0.027-0.028
	c-0.027,0-1.787,0.083-2.996,0.083H0.275V0.385h16.001V4.698z M34.806,0.385v10.688c0,5.77-3.574,8.929-8.66,8.929
	c-3.685,0-6.792-2.088-7.945-4.917l4.535-1.209c0.66,1.152,1.843,1.813,3.41,1.813c2.528,0,4.041-1.703,4.041-4.449V0.385H34.806z
	 M55.369,0.385v10.688c0,5.77-3.41,8.929-8.496,8.929c-5.113,0-8.495-3.159-8.495-8.929V0.385h4.619v10.577
	c0,3.296,1.347,4.726,3.876,4.726c2.53,0,3.877-1.43,3.877-4.726V0.385H55.369z M83.629,0.385L76.262,11.1v8.517H71.67V11.1
	L64.302,0.385h5.168l3.492,5.137c0.55,0.825,0.962,1.402,0.989,1.402h0.028c0.027,0,0.439-0.577,0.989-1.402l3.491-5.137H83.629z
	 M92.921,0c5.526,0,10.008,4.204,10.008,10.001c0,5.796-4.481,9.999-10.008,9.999c-5.527,0-9.98-4.203-9.98-9.999
	C82.94,4.204,87.395,0,92.921,0z M92.921,15.439c3.134,0,5.196-2.227,5.196-5.438c0-3.243-2.063-5.44-5.196-5.44
	c-3.106,0-5.169,2.197-5.169,5.44C87.752,13.214,89.814,15.439,92.921,15.439z M122.667,0.385v10.688c0,5.77-3.41,8.929-8.496,8.929
	c-5.113,0-8.495-3.159-8.495-8.929V0.385h4.618v10.577c0,3.296,1.348,4.726,3.877,4.726c2.529,0,3.877-1.43,3.877-4.726V0.385
	H122.667z M140.975,0.385v4.313h-5.855v14.917h-4.62V4.698h-5.773V0.385H140.975z M159.834,0.385v19.23h-4.619v-7.473h-7.204v7.473
	h-4.618V0.385h4.618V7.83h7.204V0.385H159.834z M175.611,4.698v3.763h7.067v4.148h-7.067v7.006h-4.618V0.385h13.719v4.313H175.611z
	 M187.816,19.615V0.385h4.619v19.23H187.816z M210.443,15.302v4.313h-13.719V0.385h4.618v14.917H210.443z M232.354,0.385v19.23
	h-4.533v-4.697c0-4.561,0.164-6.813,0.137-6.813h-0.027c-0.029,0-1.566,2.637-1.732,2.913l-2.252,3.847h-2.396l-2.254-3.847
	c-0.164-0.275-1.704-2.913-1.731-2.913h-0.026c-0.026,0,0.137,2.253,0.137,6.813v4.697h-4.536V0.385h4.346l3.601,5.824
	c1.401,2.28,1.624,2.774,1.649,2.774h0.026c0.027,0,0.248-0.494,1.649-2.774l3.604-5.824H232.354z M248.134,4.698v3.763h7.065v4.148
	h-7.065v7.006h-4.62V0.385h13.721v4.313H248.134z M274.498,15.302v4.313h-14.16V0.385h13.995v4.313h-9.376v3.159h7.342v4.04h-7.342
	v3.404L274.498,15.302L274.498,15.302z M287.171,6.484c-0.467-1.704-1.952-2.501-3.325-2.501c-1.377,0-2.175,0.688-2.175,1.457
	c0,1.263,1.927,1.729,4.263,2.582c2.86,1.044,5.854,2.664,5.854,5.96c0,3.518-3.022,6.018-7.506,6.018
	c-4.013,0-6.872-2.227-8.138-5.823l4.426-1.182c0.496,1.455,1.871,2.912,3.904,2.912c1.65,0,2.42-0.771,2.42-1.704
	c0-1.538-2.254-1.922-5.004-2.967c-2.31-0.879-4.977-2.144-4.977-5.522c0-2.994,3.023-5.714,7.203-5.714
	c3.685,0,6.599,2.253,7.506,5.274L287.171,6.484z M308.999,0.385v4.313h-5.856v14.917h-4.621V4.698h-5.771V0.385H308.999z
	 M311.416,19.615V0.385h4.619v19.23H311.416z M337.671,0.385l-7.396,19.23H325.3l-7.396-19.23h5.059l3.711,10.604
	c0.743,2.145,1.071,3.517,1.102,3.517h0.024c0.027,0,0.36-1.372,1.103-3.517l3.711-10.604H337.671z M348.611,16.593h-7.615
	l-1.1,3.022h-4.977l7.697-19.23h4.372l7.696,19.23h-4.974L348.611,16.593z M347.128,12.555l-1.375-3.735
	c-0.412-1.099-0.907-2.83-0.937-2.83h-0.026c-0.024,0-0.522,1.731-0.935,2.83l-1.375,3.735H347.128z M370,15.302v4.313h-13.719
	V0.385h4.619v14.917H370z"/>
</svg>
