<?xml version="1.0" encoding="utf-8"?>
<!-- Generator: Adobe Illustrator 16.0.0, SVG Export Plug-In . SVG Version: 6.00 Build 0)  -->
<!DOCTYPE svg PUBLIC "-//W3C//DTD SVG 1.1//EN" "http://www.w3.org/Graphics/SVG/1.1/DTD/svg11.dtd">
<svg version="1.1" id="图层_1" xmlns="http://www.w3.org/2000/svg" xmlns:xlink="http://www.w3.org/1999/xlink" x="0px" y="0px"
	 width="235px" height="60px" viewBox="0 0 235 60" enable-background="new 0 0 235 60" xml:space="preserve">
<path fill="#040000" d="M10.523,26.07l-6.044,6.752C3.939,33.41,3.4,33.945,3.4,33.965l0.018,0.018c0.019,0,0.81-0.055,1.835-0.055
	h5.271v2.322H0v-2.322l6.242-6.838c0.414-0.465,1.098-1.02,1.098-1.035l-0.019-0.019c-0.018,0-1.025,0.034-1.853,0.034H0.181v-2.32
	h10.343L10.523,26.07L10.523,26.07z"/>
<path fill="#040000" d="M22.446,23.625v7.072c0,3.643-2.195,5.678-5.541,5.678c-2.392,0-4.371-1.357-5.108-3.197l2.465-0.66
	c0.468,0.965,1.421,1.535,2.644,1.535c1.943,0,3.041-1.25,3.041-3.25v-7.178H22.446z"/>
<path fill="#040000" d="M35.755,23.625v7.072c0,3.678-2.123,5.678-5.433,5.678c-3.328,0-5.433-2-5.433-5.678v-7.072h2.501v7.035
	c0,2.322,1.007,3.393,2.932,3.393c1.907,0,2.915-1.07,2.915-3.393v-7.035H35.755z"/>
<path fill="#1884BF" d="M53.865,23.75l-4.857,6.768v5.732h-2.482v-5.732l-4.839-6.768h2.807l2.59,3.59
	c0.343,0.5,0.666,0.929,0.684,0.929h0.019c0.018,0,0.342-0.429,0.684-0.929l2.572-3.59H53.865z"/>
<path fill="#1884BF" d="M60.032,23.5c3.616,0,6.549,2.732,6.549,6.5s-2.933,6.5-6.549,6.5c-3.616,0-6.529-2.732-6.529-6.5
	S56.416,23.5,60.032,23.5z M60.032,34.053c2.321,0,3.939-1.66,3.939-4.052c0-2.411-1.618-4.054-3.939-4.054
	c-2.303,0-3.921,1.643-3.921,4.054C56.111,32.393,57.729,34.053,60.032,34.053z"/>
<path fill="#1884BF" d="M79.349,23.625v7.072c0,3.678-2.123,5.678-5.433,5.678c-3.328,0-5.433-2-5.433-5.678v-7.072h2.501v7.035
	c0,2.322,1.007,3.393,2.932,3.393c1.907,0,2.915-1.07,2.915-3.393v-7.035H79.349z"/>
<path fill="#1884BF" d="M91.201,23.75v2.32h-3.959v10.18h-2.5V26.07H80.82v-2.32H91.201z"/>
<path fill="#1884BF" d="M103.394,23.75v12.5h-2.5v-5.16h-5.451v5.16h-2.501v-12.5h2.501v5h5.451v-5H103.394z"/>
<path fill="#555555" d="M112.527,25.125v4.232h5.378v1.32h-5.378v5.572h-1.476v-12.5h8.223v1.375H112.527z"/>
<path fill="#555555" d="M121.555,36.25v-12.5h1.475v12.5H121.555z"/>
<path fill="#555555" d="M134.596,34.875v1.375h-8.222v-12.5h1.476v11.125H134.596z"/>
<path fill="#555555" d="M148.264,23.75v12.5h-1.457v-5.625c0-1.928,0.09-4.411,0.072-4.411h-0.018c-0.02,0-0.648,1.144-1.098,1.894
	l-2.934,5.069h-0.773l-2.932-5.069c-0.45-0.75-1.08-1.894-1.098-1.894h-0.02c-0.018,0,0.072,2.481,0.072,4.411v5.625h-1.457v-12.5
	h1.385l3.131,5.285c1.079,1.822,1.277,2.322,1.295,2.322h0.019c0.019,0,0.216-0.5,1.295-2.322l3.131-5.285H148.264z"/>
<path fill="#555555" d="M157.577,25.125v4.232h5.378v1.32h-5.378v5.572h-1.476v-12.5h8.222v1.375H157.577z"/>
<path fill="#555555" d="M175.113,34.875v1.375h-8.51v-12.5h8.4v1.375h-6.926v3.857h5.559v1.303h-5.559v4.589L175.113,34.875
	L175.113,34.875z"/>
<path fill="#555555" d="M184.193,27.215c-0.27-1.518-1.582-2.428-3.147-2.428c-1.655,0-2.823,0.785-2.823,2.035
	c0,1.375,1.743,1.803,3.418,2.303c1.762,0.519,4.154,1.303,4.154,3.732c0,2.107-1.834,3.643-4.605,3.643
	c-2.697,0-4.406-1.572-4.803-3.678l1.422-0.375c0.18,1.445,1.385,2.73,3.436,2.73c1.871,0,3.004-0.982,3.004-2.285
	c0-1.822-2.176-2.195-3.957-2.75c-1.439-0.446-3.563-1.09-3.563-3.25c0-1.947,1.854-3.393,4.371-3.393
	c2.285,0,4.084,1.338,4.498,3.338L184.193,27.215z"/>
<path fill="#555555" d="M196.441,23.75v1.375h-4.229V36.25h-1.457V25.125h-4.209V23.75H196.441z"/>
<path fill="#555555" d="M198.508,36.25v-12.5h1.477v12.5H198.508z"/>
<path fill="#555555" d="M213.941,23.75l-5.379,12.5h-1.492l-5.381-12.5h1.603l3.795,8.947c0.36,0.893,0.702,1.91,0.722,1.91h0.018
	c0.02,0,0.377-1.019,0.72-1.91l3.813-8.947H213.941z"/>
<path fill="#555555" d="M221.998,32.982h-6.313l-1.404,3.268h-1.583l5.469-12.5h1.351l5.469,12.5h-1.584L221.998,32.982z
	 M221.439,31.678l-1.996-4.642c-0.271-0.644-0.575-1.519-0.594-1.519h-0.019c-0.019,0-0.324,0.875-0.595,1.519l-1.996,4.642H221.439
	z"/>
<path fill="#555555" d="M235,34.875v1.375h-8.223v-12.5h1.477v11.125H235z"/>
</svg>
