<?xml version="1.0" encoding="utf-8"?>
<!-- Generator: Adobe Illustrator 16.0.0, SVG Export Plug-In . SVG Version: 6.00 Build 0)  -->
<!DOCTYPE svg PUBLIC "-//W3C//DTD SVG 1.1//EN" "http://www.w3.org/Graphics/SVG/1.1/DTD/svg11.dtd">
<svg version="1.1" id="图层_1" xmlns="http://www.w3.org/2000/svg" xmlns:xlink="http://www.w3.org/1999/xlink" x="0px" y="0px"
	 width="200px" height="50px" viewBox="0 0 200 50" enable-background="new 0 0 200 50" xml:space="preserve">
<path fill="#008CCE" d="M13.314,9.055c0,0-1.864-2.726-3.109,0.297c-1.239,3.023-1.137,4.022,0.315,6.641
	c1.449,2.619,3.521,1.01,4.657-1.312C16.318,12.375,13.314,9.055,13.314,9.055L13.314,9.055z M10.416,20.118
	c0,0,1.034,0.706,2.172,2.114c1.142,1.409,0.622,4.323-2.693,5.632c-3.317,1.307-2.587-0.505-2.587-0.505s1.136-1.106,0.102-2.617
	c-1.035-1.508-1.449-2.21-1.346-3.519c0.105-1.309,2.799-4.122,3.004-2.92C9.273,19.514,10.416,20.118,10.416,20.118L10.416,20.118z
	 M10.204,30.281l1.349,1.003c0.83,1.208,4.558-1.511,5.7-2.714c1.137-1.211,3.002-2.016,0-2.92c-3.005-0.908,0.206-2.417,1.76-3.518
	c1.554-1.109,1.657-2.42,1.967-5.438c0.311-3.016,3.315-2.413,3.833-0.804c0.517,1.609,2.797,3.52,2.797,3.52l-0.207,1.311
	c0,0-0.933,0.401-2.177,1.51c-1.241,1.104,1.347,0.7,1.347,0.7l3.832-2.611c0,0,0.417-2.618,0.622-4.828
	c0.208-2.219,2.072-2.524,2.9-1.11c0.83,1.409,1.761,1.608,4.765,0.099c3.004-1.513,3.314,0,3.314,1.311
	c0,1.31-0.619,1.512-2.07,1.709c-1.451,0.202-2.486,2.109-3.314,2.517c-0.829,0.406-1.968,1.506-1.038,1.811
	c0.934,0.306,1.553-0.305,2.798-2.016c1.243-1.711,2.591-0.899,2.591-0.899c0,1.002,0.933,1.408,0.933,1.408s2.07-0.509,1.864,1.202
	c-0.207,1.71-2.902,3.522-2.902,3.522l0.105,7.646c-0.934,6.438-5.493,6.438-5.493,6.438l-0.104-11.267h-1.033
	c-0.934,3.319-2.178,5.737-5.285,5.131c-3.107-0.604-0.311-4.022-0.311-4.022l-0.104-3.521c-2.071,1.508-5.386,5.634-5.386,5.634
	l-0.31,2.814c-1.037,3.119-3.211,5.838-5.696,5.838c-2.488,0-0.52-2.317,0.103-3.122c0.62-0.804,0.62-3.923-0.727-1.81
	c-1.347,2.112-4.246,2.112-4.246,2.112s-1.554-1.509-2.694,0.501c-1.139,2.014-3.315,5.535-4.143,9.658
	c-0.83,4.128-4.455,3.522-5.178,0.401c-0.731-3.116-0.523-5.432,2.068-7.645C5.024,37.623,10.204,30.281,10.204,30.281
	L10.204,30.281z M74.774,7.683c0,0-1.346-1.71-2.279,1.001c-0.932,2.719,0.415,4.429,0,6.139c-0.415,1.71,3.626,1.11,4.972,0.1
	c1.348-1.005,1.348-3.619-0.414-5.031C75.292,8.479,74.774,7.683,74.774,7.683L74.774,7.683z M68.454,18.947
	c-1.448,1.003-2.348,2.849-1.657,4.624c0.691,1.783,1.417,1.175,1.657,3.525c0,0,2.176,1.307,4.041-1.913
	c1.865-3.221-1.448-5.033-1.448-5.033S69.905,17.94,68.454,18.947L68.454,18.947z M75.396,27.9c0,0-0.085,0.726-0.206,1.311
	c-3.419,7.846-8.184,13.579-11.188,17.506c-3.006,3.921-5.18,1.005-5.18,1.005s-4.973-3.622-0.518-5.433
	c4.455-1.813,12.743-9.96,14.917-13.585C75.396,25.083,75.396,27.9,75.396,27.9L75.396,27.9z M85.754,17.134
	c0,0-2.999,1.008-1.239,3.118c1.761,2.117,1.761,3.521,4.141,2.42c2.381-1.11,2.381-0.304,1.865,0.8
	c-0.52,1.108-2.071,3.22-1.765,4.529c0,0,3.834-0.3,4.868-1.911c1.042-1.611,4.565-4.929,4.771-7.144
	c0.206-2.218-1.454-5.133-4.456-4.327C90.933,15.423,85.754,17.134,85.754,17.134L85.754,17.134z M83.58,30.314
	c0,0,4.869-0.903,7.146-1.711c2.277-0.803,3.833-0.399,3.833-0.399c-0.104,3.218-0.726,4.526-3.731,6.336
	c-2.999,1.813-5.593,1.108-7.662-1.007C81.093,31.422,83.58,30.314,83.58,30.314L83.58,30.314z M118.389,28.548
	c-2.382-0.3-3.313-1.104-2.796,2.919c0,0,0.724,2.415,5.489,3.422c1.264,0.268,2.391-0.224,3.514-0.496
	c1.125-0.273,2.141-0.73,2.979-1.203c1.484-0.836,2.521-1.318,2.521-1.318s1.865-0.403,1.556,0.604
	c-0.314,1.004-2.074,3.723-6.732,5.432c-4.66,1.711-0.833,2.919,0.829,2.615c1.651-0.299,8.077-0.904,10.979-7.943
	c2.896-7.047,5.801-6.24,5.801-6.24s5.385-2.417,5.798-5.229c0.417-2.82-2.175-1.411-3.313-0.709
	c-1.14,0.709-3.418,1.609-4.037,1.913c0,0,0.619-2.914,1.553-4.625c0.932-1.711,2.067-6.438-1.348-9.657
	c-3.421-3.22-3.832-1.513-4.664,1.61c-0.824,3.116,0.729,6.032-0.518,11.164c-1.244,5.132-1.139,4.523-4.557,5.732
	S123.406,29.186,118.389,28.548L118.389,28.548z M146.668,33.779c0,0,2.072,1.008,2.796,3.223c1.556,4.828-1.86,5.732-4.142,5.732
	c-2.282,0-0.209-1.709-1.034-2.916c-0.831-1.209-2.695-3.823-1.763-5.836C143.457,31.971,146.668,33.779,146.668,33.779
	L146.668,33.779z M170.984,19.036c-0.352,0.067-2.278,0.71-2.071,3.421c0.208,2.718,1.762,4.929,3.004,4.525
	c1.242-0.399,2.278-1.708,1.864-5.028c-0.161-0.791-0.553-1.186-0.938-1.629C172.107,19.469,171.333,18.977,170.984,19.036
	L170.984,19.036z M175.025,10.381c3.5,1.363,4.867,6.642,4.867,5.538c0,1.104-0.207,2.115,1.348,1.304
	c1.553-0.798-0.727-2.509-0.727-2.509c0.104-3.624,1.035-0.913,3.004-2.624c1.971-1.709,1.244-2.106,0.105-2.813
	c-1.145-0.708-1.038-1.507-1.038-1.507c0-2.719,2.487-3.319,3.938-2.719c1.447,0.602,2.381,0.602,2.485-0.098
	c0.101-0.707,0.931-0.606,2.173-3.123c1.243-2.514,2.073-1.708,2.073-1.708c4.353,1.513,1.138,5.937,1.138,5.937
	c3.316,0.405,3.73,1.305,3.73,1.305c4.145,3.827,0.52,6.843-2.176,9.858c-2.692,3.021,0.621,1.711,0.621,4.431
	c0,2.717-1.762,3.219-1.762,3.219c-4.557,1.412-6.524,4.832-6.524,4.832c3.003,0.501,2.28,5.026,1.346,5.431
	c-0.933,0.402-2.381,1.51-2.381,1.51s-0.104,4.627-0.104,7.146c0,2.511-2.383,4.02-6.426,2.712
	c-4.037-1.308-5.593-1.912-2.275-2.914c3.313-1.006,3.73-1.509,3.832-3.624c0.104-2.11-5.283-0.401-7.871,1.511
	c-2.59,1.91-6.217,0.604-7.047-1.41c-0.83-2.013-1.967-1.812,1.451-2.615c3.42-0.805,8.596-2.717,8.596-2.717
	s5.182-2.213,5.906-4.629c0.725-2.412-1.035-0.804-1.035-0.804s-4.246,3.822-9.323,3.117c-5.076-0.704-0.83-3.015-0.83-3.015
	s10.259-6.339,12.116-7.648c1.869-1.311-1.236-1.008-1.236-1.008s-3.523,0.102-4.042,1.608c-0.517,1.509-3.521,2.819-3.623-0.302
	c-0.106-3.119-1.347-4.019-1.972-7.948C172.746,10.184,174.507,10.184,175.025,10.381L175.025,10.381z M192.533,12.396
	c0,0-2.487-1.813-2.695,1.109c0,0,0.104,1.109,0.829,1.71c0.724,0.602,0.829,1.61,1.034,0c0,0,0.519-0.703,1.138-1.21
	C193.464,13.504,192.533,12.396,192.533,12.396z"/>
</svg>
