<?xml version="1.0" encoding="utf-8"?>
<!-- Generator: Adobe Illustrator 16.0.0, SVG Export Plug-In . SVG Version: 6.00 Build 0)  -->
<!DOCTYPE svg PUBLIC "-//W3C//DTD SVG 1.1//EN" "http://www.w3.org/Graphics/SVG/1.1/DTD/svg11.dtd">
<svg version="1.1" id="图层_1" xmlns="http://www.w3.org/2000/svg" xmlns:xlink="http://www.w3.org/1999/xlink" x="0px" y="0px"
	 width="200px" height="50px" viewBox="0 0 200 50" enable-background="new 0 0 200 50" xml:space="preserve">
	<path fill-rule="evenodd" clip-rule="evenodd" fill="#003894" d="M13.312,9.054c0,0-1.864-2.726-3.109,0.297
		c-1.239,3.023-1.137,4.022,0.315,6.641c1.449,2.619,3.521,1.01,4.657-1.312C16.316,12.374,13.312,9.054,13.312,9.054L13.312,9.054z
		 M10.414,20.117c0,0,1.034,0.706,2.172,2.115c1.142,1.409,0.622,4.322-2.693,5.632c-3.317,1.307-2.587-0.504-2.587-0.504
		s1.136-1.107,0.102-2.618c-1.035-1.508-1.449-2.21-1.346-3.519c0.105-1.309,2.799-4.122,3.004-2.92
		C9.271,19.513,10.414,20.117,10.414,20.117L10.414,20.117z M10.202,30.281l1.349,1.003c0.83,1.208,4.558-1.511,5.7-2.714
		c1.137-1.21,3.002-2.016,0-2.919c-3.005-0.909,0.206-2.417,1.76-3.518c1.554-1.11,1.657-2.421,1.967-5.438
		c0.311-3.016,3.315-2.413,3.833-0.804c0.517,1.609,2.797,3.52,2.797,3.52l-0.207,1.311c0,0-0.933,0.401-2.177,1.511
		c-1.241,1.104,1.347,0.7,1.347,0.7l3.832-2.611c0,0,0.417-2.618,0.622-4.828c0.208-2.219,2.072-2.524,2.9-1.11
		c0.83,1.409,1.761,1.608,4.765,0.099c3.004-1.513,3.314,0,3.314,1.311c0,1.31-0.619,1.512-2.07,1.709
		c-1.451,0.202-2.486,2.109-3.314,2.517c-0.829,0.406-1.968,1.506-1.038,1.811c0.934,0.306,1.553-0.305,2.798-2.016
		c1.243-1.711,2.591-0.899,2.591-0.899c0,1.002,0.933,1.408,0.933,1.408s2.07-0.509,1.864,1.202
		c-0.207,1.711-2.902,3.523-2.902,3.523l0.105,7.646c-0.934,6.438-5.493,6.438-5.493,6.438l-0.104-11.267h-1.033
		c-0.934,3.32-2.178,5.737-5.285,5.131c-3.107-0.604-0.311-4.023-0.311-4.023l-0.104-3.52c-2.071,1.508-5.386,5.634-5.386,5.634
		l-0.31,2.815c-1.037,3.119-3.211,5.837-5.696,5.837c-2.488,0-0.52-2.317,0.103-3.122c0.62-0.804,0.62-3.923-0.727-1.81
		s-4.246,2.113-4.246,2.113s-1.554-1.509-2.694,0.501c-1.139,2.014-3.315,5.535-4.143,9.659c-0.83,4.128-4.455,3.522-5.178,0.402
		c-0.731-3.117-0.523-5.433,2.068-7.646C5.022,37.623,10.202,30.281,10.202,30.281L10.202,30.281z M74.772,7.682
		c0,0-1.346-1.711-2.279,1.001c-0.932,2.719,0.415,4.429,0,6.139s3.626,1.11,4.972,0.1c1.348-1.005,1.348-3.619-0.414-5.031
		C75.29,8.479,74.772,7.682,74.772,7.682L74.772,7.682z M68.452,18.947c-1.448,1.003-2.348,2.849-1.657,4.624
		c0.691,1.783,1.417,1.175,1.657,3.524c0,0,2.176,1.308,4.041-1.912c1.865-3.221-1.448-5.033-1.448-5.033
		S69.903,17.94,68.452,18.947L68.452,18.947z M75.394,27.901c0,0-0.085,0.725-0.206,1.31C71.769,37.056,67.004,42.79,64,46.718
		c-3.006,3.92-5.18,1.004-5.18,1.004s-4.973-3.623-0.518-5.433c4.455-1.813,12.743-9.96,14.917-13.585
		C75.394,25.083,75.394,27.901,75.394,27.901L75.394,27.901z M85.752,17.134c0,0-2.999,1.008-1.239,3.118
		c1.761,2.117,1.761,3.522,4.141,2.421c2.381-1.111,2.381-0.304,1.865,0.8c-0.52,1.108-2.071,3.22-1.765,4.529
		c0,0,3.834-0.3,4.868-1.911c1.042-1.611,4.565-4.93,4.771-7.144c0.206-2.218-1.454-5.133-4.456-4.327
		C90.931,15.423,85.752,17.134,85.752,17.134L85.752,17.134z M83.578,30.314c0,0,4.869-0.903,7.146-1.711
		c2.277-0.802,3.833-0.399,3.833-0.399c-0.104,3.218-0.726,4.527-3.731,6.336c-2.999,1.813-5.593,1.109-7.662-1.007
		C81.091,31.422,83.578,30.314,83.578,30.314L83.578,30.314z M118.387,28.548c-2.382-0.3-3.314-1.104-2.796,2.919
		c0,0,0.724,2.415,5.489,3.422c1.264,0.267,2.391-0.224,3.514-0.497c1.125-0.273,2.141-0.73,2.978-1.203
		c1.485-0.835,2.521-1.318,2.521-1.318s1.865-0.403,1.555,0.604c-0.314,1.004-2.074,3.722-6.732,5.431
		c-4.66,1.711-0.833,2.919,0.829,2.616c1.652-0.3,8.077-0.905,10.979-7.944c2.897-7.047,5.802-6.24,5.802-6.24
		s5.384-2.417,5.797-5.229c0.417-2.82-2.174-1.411-3.313-0.709c-1.14,0.709-3.418,1.609-4.038,1.913c0,0,0.62-2.914,1.554-4.625
		c0.931-1.711,2.067-6.438-1.348-9.657c-3.421-3.22-3.833-1.513-4.664,1.61c-0.824,3.116,0.729,6.032-0.518,11.164
		c-1.244,5.132-1.139,4.524-4.557,5.733C128.021,27.747,123.404,29.185,118.387,28.548L118.387,28.548z M146.666,33.779
		c0,0,2.072,1.008,2.796,3.223c1.555,4.828-1.86,5.733-4.141,5.733c-2.283,0-0.21-1.709-1.035-2.917
		c-0.831-1.208-2.695-3.823-1.762-5.836C143.455,31.971,146.666,33.779,146.666,33.779L146.666,33.779z M170.983,19.035
		c-0.352,0.067-2.279,0.71-2.072,3.422c0.208,2.718,1.762,4.929,3.004,4.526c1.242-0.4,2.278-1.709,1.864-5.029
		c-0.161-0.791-0.553-1.186-0.938-1.629C172.106,19.469,171.331,18.976,170.983,19.035L170.983,19.035z M175.023,10.381
		c3.5,1.363,4.867,6.642,4.867,5.538c0,1.104-0.206,2.115,1.348,1.304c1.553-0.798-0.727-2.509-0.727-2.509
		c0.105-3.624,1.036-0.913,3.004-2.624c1.971-1.709,1.245-2.106,0.106-2.813c-1.145-0.708-1.038-1.507-1.038-1.507
		c0-2.719,2.487-3.32,3.938-2.719c1.448,0.602,2.382,0.602,2.486-0.098c0.101-0.707,0.931-0.606,2.172-3.123
		c1.244-2.514,2.074-1.708,2.074-1.708c4.353,1.513,1.138,5.937,1.138,5.937c3.316,0.405,3.73,1.305,3.73,1.305
		c4.144,3.827,0.519,6.843-2.175,9.858c-2.693,3.021,0.621,1.711,0.621,4.431c0,2.717-1.762,3.219-1.762,3.219
		c-4.557,1.412-6.525,4.832-6.525,4.832c3.003,0.501,2.28,5.027,1.346,5.431c-0.932,0.402-2.381,1.509-2.381,1.509
		s-0.104,4.628-0.104,7.146c0,2.512-2.383,4.021-6.426,2.713c-4.037-1.307-5.593-1.912-2.276-2.915
		c3.313-1.006,3.731-1.509,3.832-3.624c0.105-2.111-5.283-0.402-7.871,1.51c-2.59,1.911-6.217,0.605-7.046-1.409
		c-0.83-2.013-1.967-1.812,1.45-2.616c3.42-0.805,8.597-2.717,8.597-2.717s5.181-2.212,5.905-4.628
		c0.725-2.412-1.035-0.804-1.035-0.804s-4.246,3.822-9.323,3.117c-5.076-0.704-0.83-3.015-0.83-3.015s10.259-6.339,12.117-7.648
		c1.869-1.311-1.237-1.008-1.237-1.008s-3.523,0.102-4.042,1.609c-0.517,1.509-3.521,2.819-3.623-0.302
		c-0.106-3.12-1.346-4.02-1.972-7.949C172.744,10.183,174.505,10.183,175.023,10.381L175.023,10.381z M192.531,12.395
		c0,0-2.487-1.813-2.695,1.109c0,0,0.104,1.109,0.829,1.71c0.724,0.602,0.829,1.61,1.034,0c0,0,0.519-0.703,1.138-1.21
		C193.462,13.504,192.531,12.395,192.531,12.395z"/>
</svg>
